HIERARCHY
ROOT Hips
{
	OFFSET 0.000000 89.005402 0.000000
	CHANNELS 6 Xposition Yposition Zposition Xrotation Yrotation Zrotation
	JOINT Spine
	{
		OFFSET 0.116900 10.681000 0.373400
		CHANNELS 3 Xrotation Yrotation Zrotation
		JOINT Spine1
		{
			OFFSET 0.000000 13.840401 0.053500
			CHANNELS 3 Xrotation Yrotation Zrotation
			JOINT Spine2
			{
				OFFSET 0.000000 14.712700 -0.366200
				CHANNELS 3 Xrotation Yrotation Zrotation
				JOINT Neck
				{
					OFFSET 0.000000 35.415497 -3.314200
					CHANNELS 3 Xrotation Yrotation Zrotation
					JOINT Head
					{
						OFFSET 0.000000 16.899200 1.218300
						CHANNELS 3 Xrotation Yrotation Zrotation
						JOINT HeadTop_End
						{
							OFFSET 0.000000 22.206207 2.192500
							CHANNELS 3 Xrotation Yrotation Zrotation
							End Site
							{
								OFFSET 0.000000 22.314178 0.000000
							}
						}
					}
				}
				JOINT LeftShoulder
				{
					OFFSET 12.896400 26.716293 -4.548400
					CHANNELS 3 Xrotation Yrotation Zrotation
					JOINT LeftArm
					{
						OFFSET 19.027000 -4.857010 -1.718400
						CHANNELS 3 Xrotation Yrotation Zrotation
						JOINT LeftForeArm
						{
							OFFSET 24.179897 0.000000 0.000000
							CHANNELS 3 Xrotation Yrotation Zrotation
							JOINT LeftHand
							{
								OFFSET 27.156403 0.000000 0.000000
								CHANNELS 3 Xrotation Yrotation Zrotation
								JOINT LeftHandIndex1
								{
									OFFSET 16.441200 0.000000 0.000000
									CHANNELS 3 Xrotation Yrotation Zrotation
									JOINT LeftHandIndex2
									{
										OFFSET 4.821899 0.000000 0.000000
										CHANNELS 3 Xrotation Yrotation Zrotation
										JOINT LeftHandIndex3
										{
											OFFSET 6.386497 0.000000 0.000000
											CHANNELS 3 Xrotation Yrotation Zrotation
											JOINT LeftHandIndex4
											{
												OFFSET 5.188988 0.000000 0.000000
												CHANNELS 3 Xrotation Yrotation Zrotation
												End Site
												{
													OFFSET -0.178703 5.185913 0.000177
												}
											}
										}
									}
								}
								JOINT LeftHandThumb1
								{
									OFFSET 6.534897 -5.032593 5.900300
									CHANNELS 3 Xrotation Yrotation Zrotation
									JOINT LeftHandThumb2
									{
										OFFSET 3.818176 -2.204422 2.204423
										CHANNELS 3 Xrotation Yrotation Zrotation
										JOINT LeftHandThumb3
										{
											OFFSET 3.252098 -1.877594 1.877601
											CHANNELS 3 Xrotation Yrotation Zrotation
											JOINT LeftHandThumb4
											{
												OFFSET 5.251778 -3.032120 3.032117
												CHANNELS 3 Xrotation Yrotation Zrotation
												End Site
												{
													OFFSET 0.000023 6.780014 0.000000
												}
											}
										}
									}
								}
							}
						}
					}
				}
				JOINT RightShoulder
				{
					OFFSET -12.896300 26.716293 -4.548400
					CHANNELS 3 Xrotation Yrotation Zrotation
					JOINT RightArm
					{
						OFFSET -19.027000 -4.857010 -1.718400
						CHANNELS 3 Xrotation Yrotation Zrotation
						JOINT RightForeArm
						{
							OFFSET -24.179897 0.000000 0.000000
							CHANNELS 3 Xrotation Yrotation Zrotation
							JOINT RightHand
							{
								OFFSET -27.156403 0.000000 0.000000
								CHANNELS 3 Xrotation Yrotation Zrotation
								JOINT RightHandThumb1
								{
									OFFSET -6.591202 -4.852203 5.988100
									CHANNELS 3 Xrotation Yrotation Zrotation
									JOINT RightHandThumb2
									{
										OFFSET -3.818176 -2.204422 2.204423
										CHANNELS 3 Xrotation Yrotation Zrotation
										JOINT RightHandThumb3
										{
											OFFSET -3.252098 -1.877594 1.877601
											CHANNELS 3 Xrotation Yrotation Zrotation
											JOINT RightHandThumb4
											{
												OFFSET -5.251778 -3.032120 3.032117
												CHANNELS 3 Xrotation Yrotation Zrotation
												End Site
												{
													OFFSET -0.000023 6.780014 0.000000
												}
											}
										}
									}
								}
								JOINT RightHandIndex1
								{
									OFFSET -16.029404 0.000000 0.000000
									CHANNELS 3 Xrotation Yrotation Zrotation
									JOINT RightHandIndex2
									{
										OFFSET -5.213303 0.000000 0.000000
										CHANNELS 3 Xrotation Yrotation Zrotation
										JOINT RightHandIndex3
										{
											OFFSET -6.386528 0.000000 0.000000
											CHANNELS 3 Xrotation Yrotation Zrotation
											JOINT RightHandIndex4
											{
												OFFSET -5.189026 0.000000 0.000000
												CHANNELS 3 Xrotation Yrotation Zrotation
												End Site
												{
													OFFSET 0.236702 5.183624 0.001972
												}
											}
										}
									}
								}
							}
						}
					}
				}
			}
		}
	}
	JOINT LeftUpLeg
	{
		OFFSET 14.073000 -7.904099 -1.463000
		CHANNELS 3 Xrotation Yrotation Zrotation
		JOINT LeftLeg
		{
			OFFSET -0.109806 -34.073280 4.093200
			CHANNELS 3 Xrotation Yrotation Zrotation
			JOINT LeftFoot
			{
				OFFSET 0.109806 -29.899420 -6.319000
				CHANNELS 3 Xrotation Yrotation Zrotation
				JOINT LeftToeBase
				{
					OFFSET 1.551100 -14.988700 20.535801
					CHANNELS 3 Xrotation Yrotation Zrotation
					JOINT LeftToe_End
					{
						OFFSET 0.221200 0.570800 13.248301
						CHANNELS 3 Xrotation Yrotation Zrotation
						End Site
						{
							OFFSET 0.000000 13.262435 0.000000
						}
					}
				}
			}
		}
	}
	JOINT RightUpLeg
	{
		OFFSET -13.839300 -7.904099 -1.463000
		CHANNELS 3 Xrotation Yrotation Zrotation
		JOINT RightLeg
		{
			OFFSET 0.109694 -34.073219 4.093300
			CHANNELS 3 Xrotation Yrotation Zrotation
			JOINT RightFoot
			{
				OFFSET -0.109694 -29.899384 -6.319200
				CHANNELS 3 Xrotation Yrotation Zrotation
				JOINT RightToeBase
				{
					OFFSET -1.551100 -14.988700 20.535801
					CHANNELS 3 Xrotation Yrotation Zrotation
					JOINT RightToe_End
					{
						OFFSET -0.221200 0.570900 13.248299
						CHANNELS 3 Xrotation Yrotation Zrotation
						End Site
						{
							OFFSET 0.000000 13.262440 0.000000
						}
					}
				}
			}
		}
	}
}
MOTION
Frames: 7
Frame Time: 0.033333
-11.836201 29.370171 231.676880 353.469202 -43.664313 19.844556 8.221651 0.062016 -3.291762 16.434670 -0.310482 -5.522931 16.434649 -0.310476 -5.522948 28.754208 1.848550 -8.835455 -15.541995 1.070319 1.316876 0.000003 0.000000 -0.000001 0.301646 -14.507477 -12.606460 -33.131554 -11.116491 -26.795725 11.678672 -36.399407 3.524567 23.552145 -13.316801 13.429948 -2.914363 -10.925848 -49.691832 -2.843046 -3.065110 -56.857971 -0.000001 -0.000005 -0.000007 -0.000000 0.000000 0.000001 9.155691 4.800951 -5.500574 -0.321058 0.063806 0.788453 0.000000 0.000010 -0.000011 0.000002 0.000002 0.000001 0.190420 26.193798 11.654289 -195.993685 172.089676 199.741847 31.382984 23.100139 5.245618 27.509695 12.996136 -25.324624 -5.123412 -6.582546 15.002280 4.772080 -12.116262 -2.581926 0.000004 0.000003 -0.000010 -0.000000 0.000000 -0.000002 -1.138466 3.449300 6.200739 0.182374 -1.253298 15.515746 -0.000003 0.000004 -0.000000 -0.000001 0.000001 -0.000002 -90.628366 -8.175591 22.884332 63.792375 -1.664409 -5.570749 38.040875 -6.482116 -24.812641 -1.843402 6.241201 -3.219900 -0.000000 -0.000001 -0.000000 -96.793322 -41.910092 -49.229090 132.837795 38.264516 -2.165649 8.268173 -1.748559 29.081381 11.721445 7.739438 0.161098 0.000000 -0.000001 -0.000001 
-11.617722 31.724152 236.997711 353.500074 -46.612107 16.271187 8.207657 0.438924 -3.804622 16.409026 0.064885 -6.329145 16.409024 0.064865 -6.329148 25.326635 4.556940 -8.364401 -14.672624 3.647361 1.296675 0.000003 -0.000002 0.000001 0.374624 -13.753772 -11.978198 -32.580907 -11.704076 -27.014706 13.862249 -35.820193 4.022345 24.901837 -12.965584 12.836477 -2.914106 -10.925527 -49.688083 -2.842742 -3.064884 -56.854734 -0.000004 -0.000008 -0.000003 0.000002 -0.000002 -0.000003 9.146245 4.785170 -5.502398 -0.303939 0.101352 0.794230 0.000003 0.000011 -0.000007 -0.000001 0.000001 0.000000 -0.558712 26.002170 15.301575 -193.967318 178.529848 196.710609 28.483564 30.311775 5.815075 22.850584 10.513148 -21.805224 -8.118137 -5.338326 1.863586 7.538355 -18.373878 -2.845192 0.000007 0.000004 -0.000013 0.000002 -0.000001 -0.000000 -1.076229 -0.746120 4.987878 0.147095 -1.131772 16.774306 -0.000008 0.000003 0.000002 -0.000003 -0.000000 -0.000000 -92.458126 -10.266221 22.838710 74.972364 -1.095796 -3.844389 31.609111 -4.751854 -23.032006 -0.053783 4.694173 -0.076917 -0.000000 -0.000001 0.000000 -88.829848 -40.613992 -48.547475 136.216621 42.946532 -4.118936 7.078399 -1.341984 28.984451 0.999391 13.793652 -6.700171 0.000001 0.000000 -0.000001 
-11.336913 35.247963 240.854691 354.136566 -49.057513 13.836270 8.234229 0.651551 -4.184748 16.466968 0.430063 -6.930781 16.466980 0.430055 -6.930772 22.828596 6.876826 -7.742067 -14.404027 6.224030 1.201230 -0.000001 -0.000000 0.000000 0.431729 -12.433074 -11.577688 -31.196196 -10.667708 -27.791586 15.817747 -38.134077 5.815616 25.898416 -12.290184 13.164747 -2.914997 -10.926180 -49.700496 -2.843816 -3.065604 -56.865604 0.000002 -0.000002 0.000004 -0.000000 -0.000000 0.000001 9.151602 4.794136 -5.501352 -0.313692 0.079990 0.790936 0.000001 0.000010 -0.000009 -0.000001 -0.000002 0.000000 -0.927318 25.095881 17.514856 -192.285521 186.480079 193.740037 22.907194 40.259543 6.362534 17.000191 8.542915 -22.859969 -9.466594 -4.625898 -2.677180 8.349984 -20.180892 -2.863051 0.000003 0.000003 -0.000013 -0.000002 0.000000 0.000000 -1.112900 -1.772810 5.622032 0.136811 -1.098280 17.122651 -0.000003 0.000004 0.000001 -0.000003 -0.000001 -0.000002 -91.525764 -10.612371 22.991240 82.201743 0.105983 -2.775999 23.193622 -2.904685 -21.525076 1.241392 5.896278 -0.089341 -0.000000 -0.000000 -0.000000 -78.209245 -36.780705 -43.532224 135.517510 46.587867 -2.327588 3.172835 -1.535614 26.375911 -6.454638 23.028374 -8.391280 -0.000002 0.000000 -0.000001 
-10.984173 39.802986 243.894348 354.729344 -50.585542 11.618118 8.176291 0.779233 -4.325276 16.358696 0.851796 -7.109163 16.358694 0.851801 -7.109164 20.912965 8.189379 -7.037602 -14.466783 8.318913 1.116985 -0.000000 0.000001 -0.000001 0.517008 -10.965123 -10.948539 -29.848142 -8.857832 -29.879766 16.788492 -41.570082 8.070979 26.186938 -11.343868 14.082098 -2.916570 -10.927613 -49.721800 -2.845717 -3.066867 -56.884281 0.000002 -0.000001 0.000001 -0.000000 0.000001 -0.000002 9.163502 4.813976 -5.499056 -0.335187 0.032897 0.783689 0.000002 0.000010 -0.000007 -0.000003 0.000000 0.000000 -0.867478 23.613608 18.169261 -191.584047 193.388979 191.358159 14.276472 46.544761 9.074132 10.956236 11.446811 -24.742017 -8.490398 -4.877739 -0.181474 7.427462 -18.125271 -2.840577 0.000005 0.000004 -0.000014 -0.000000 -0.000000 -0.000000 -1.040922 -0.291253 8.007721 0.140659 -1.110865 16.991979 -0.000005 0.000004 0.000002 0.000004 -0.000000 0.000002 -88.553607 -8.716204 22.774405 85.460017 0.881000 -2.585311 14.960028 -1.017368 -18.853194 3.230049 7.639651 -0.340814 -0.000000 -0.000001 0.000000 -66.948934 -31.392543 -37.634766 132.620731 47.495913 2.457978 -3.939110 -1.724241 19.570082 -19.544938 33.259104 -7.271424 0.000001 0.000000 0.000000 
-10.511054 45.209160 246.539093 354.757457 -50.974211 9.288706 8.000049 0.968723 -4.174774 16.017707 1.315823 -7.007359 16.017697 1.315828 -7.007360 18.985158 8.426165 -6.507467 -14.473857 9.835873 1.139634 -0.000000 -0.000000 0.000001 0.621370 -9.629710 -10.126650 -28.850538 -7.190679 -33.092717 16.757914 -44.341810 9.752117 25.823634 -10.261016 15.066398 -2.915116 -10.926902 -49.701999 -2.843972 -3.065686 -56.866912 -0.000003 -0.000004 -0.000002 0.000001 -0.000002 -0.000000 9.150489 4.792291 -5.501576 -0.311646 0.084429 0.791628 0.000002 0.000009 -0.000010 0.000001 -0.000002 -0.000000 -0.592876 22.048028 17.847460 -191.669274 198.384730 189.535741 4.154554 47.122257 13.469579 5.170621 18.645038 -24.787445 -5.976626 -5.421248 4.160923 5.515112 -13.805791 -2.682727 0.000005 0.000004 -0.000013 0.000000 -0.000000 -0.000002 -1.035842 2.539933 11.045477 0.143703 -1.120738 16.889173 -0.000003 0.000003 0.000002 0.000000 -0.000001 0.000001 -83.723305 -5.135006 22.292766 84.921689 1.988663 -3.159507 9.977662 0.005329 -15.072416 1.687103 6.483245 0.469384 -0.000000 -0.000002 0.000000 -46.325608 -40.431158 -21.675745 138.336234 26.791241 3.514825 -37.812112 10.844154 -13.632629 -30.292504 36.880238 -12.629832 0.000000 0.000000 0.000002 
-9.852972 51.086319 248.787369 354.432641 -50.485108 7.166000 7.719785 1.238838 -3.811021 15.475744 1.774335 -6.836042 15.475740 1.774348 -6.836045 16.661649 7.940769 -6.304004 -14.222037 10.960960 1.321677 -0.000006 -0.000001 -0.000000 0.727230 -8.449299 -9.351559 -28.072931 -5.987453 -36.776430 16.156194 -45.935153 10.537382 25.137545 -9.146507 15.776943 -2.909503 -10.922244 -49.624883 -2.837084 -3.061197 -56.799163 -0.000002 -0.000003 -0.000003 -0.000000 0.000003 0.000000 9.152855 4.796225 -5.501115 -0.315934 0.075074 0.790184 0.000002 0.000008 -0.000008 -0.000001 0.000001 0.000000 -0.278158 20.661362 17.140030 -192.114780 201.381940 188.813121 -4.041442 44.482153 16.888469 -0.229230 25.899908 -22.476127 -3.017040 -5.737379 8.250018 3.173814 -8.478649 -2.289818 0.000005 0.000003 -0.000012 0.000000 0.000001 -0.000001 -1.257975 5.936779 13.857336 0.142997 -1.118432 16.913145 -0.000004 -0.000001 0.000005 0.000000 -0.000001 -0.000000 -77.519621 -2.004629 22.532997 81.954395 3.031649 -4.411267 8.476209 0.284146 -12.959573 -1.095284 1.567697 1.763848 -0.000000 0.000000 0.000000 -31.837141 -48.432981 -1.507606 126.748162 -17.453158 -3.339338 -59.666893 10.739266 -9.780465 -41.275079 33.582370 -12.594308 -0.000000 -0.000002 -0.000001 
-8.997291 56.778328 250.585648 354.108398 -49.577123 5.568778 7.362215 1.486917 -3.470928 14.780089 2.227720 -6.612932 14.780096 2.227697 -6.612922 13.966123 7.104554 -6.338618 -13.759258 11.897658 1.631753 -0.000003 -0.000001 0.000000 0.825284 -7.339130 -8.738282 -27.310493 -5.097571 -40.491031 15.381009 -46.795142 10.758812 24.357582 -8.026466 16.186064 -2.909855 -10.921084 -49.629025 -2.837449 -3.061428 -56.802828 -0.000002 -0.000004 -0.000002 0.000001 -0.000001 -0.000001 9.156831 4.802829 -5.500336 -0.323096 0.059364 0.787779 0.000001 0.000011 -0.000010 -0.000001 0.000001 0.000003 0.021655 19.398553 16.310570 -192.577593 202.718047 189.796272 -8.742161 42.628262 18.368503 -4.050029 29.493467 -18.162690 -0.473716 -5.798264 11.770123 1.012967 -3.606051 -1.740997 0.000006 0.000003 -0.000008 -0.000000 0.000000 -0.000004 -1.674356 9.017311 15.978917 0.141784 -1.114566 16.953481 -0.000003 0.000004 0.000002 0.000000 -0.000001 -0.000002 -70.526621 0.132436 22.553874 78.425359 3.459233 -5.522288 5.557964 0.318833 -10.583066 1.048644 -3.538438 1.335943 0.000000 -0.000001 0.000000 -40.171266 -36.069925 -13.535529 119.409711 -15.732451 -0.234052 -49.839812 4.306159 -3.841058 -37.148695 27.503502 -7.414860 -0.000000 0.000000 -0.000000 
